<svg xmlns="http://www.w3.org/2000/svg" viewBox="228.97 246.46 638.25 619.31">
<path d="M368.76 247.39C373.24 246.47 377.98 246.47 382.5 247.08C395.46 248.82 406.94 258.9 409.57 271.83C410.85 278.18 410.1 285.05 410.12 291.5C410.15 299.83 410.25 308.17 410.21 316.5C410.12 337.35 415.12 363 391.87 373.41C388.57 374.89 385.09 375.79 381.5 376.17C376.9 376.64 372.12 376.6 367.56 375.76C356.38 373.69 345.88 364.6 343.34 353.3C341.64 345.78 342.43 337.4 342.5 329.74C342.57 321.33 342.54 312.91 342.6 304.5C342.68 293.88 341.07 282.04 343.27 271.62C345.84 259.38 356.8 249.84 368.76 247.39ZM653.69 247.34C658.16 246.46 662.98 246.38 667.5 246.93C670.99 247.36 674.2 248.64 677.33 250.18C694.52 258.67 695.34 271.31 695.48 288.5C695.55 297.83 695.31 307.17 695.39 316.5C695.57 337.12 700.14 362.58 677.57 373.12C674.39 374.6 670.99 375.68 667.5 376.07C662.65 376.61 657.34 376.63 652.51 375.86C640.76 373.99 630.53 364.05 628.19 352.45C626.87 345.9 627.56 339.13 627.55 332.5C627.54 323.5 627.57 314.5 627.59 305.5C627.61 284.81 623.15 262.69 644.4 250.89C647.31 249.27 650.4 247.98 653.69 247.34ZM323 310.5C323.29 330 319.41 352.25 329.61 369.86C347.48 400.71 399.23 401.87 419.59 373.13C432.98 354.22 425.83 331.3 428.5 309.97C488.5 309.97 548.5 309.97 608.5 309.97C609.98 331.57 604.53 354.35 616.82 373.69C635.72 403.43 690.23 399.31 707.41 369.91C717.68 352.33 713.43 329.96 713.97 310.5C725.42 307.84 739.72 310.87 750.67 314.79C758.46 317.58 766.21 321.66 772.78 326.71C790.7 340.5 803.19 360.02 806.89 382.5C809.1 395.91 807.99 409.96 808.03 423.5C808.08 443.17 808.03 462.83 808.12 482.5C808.2 497.83 808.08 513.17 808.1 528.5C808.12 544.5 808.1 560.5 808.1 576.5C808.1 584.03 809.37 592.87 807.5 600.08C795.04 594.95 785.1 592.08 772.15 588.65C772.15 542.41 772.15 496.16 772.15 449.91C603.26 449.91 434.38 449.91 265.5 449.91C264.01 458.17 264.86 467.09 264.84 475.5C264.82 491.83 264.93 508.17 264.84 524.5C264.55 578.16 264.81 631.84 264.84 685.5C264.87 716.23 259.02 748.38 290.58 765.96C302.75 772.74 316.03 772.25 329.5 772.26C346.5 772.26 363.5 772.27 380.5 772.24C428.17 772.17 475.83 772.24 523.5 772.26C539.5 772.26 555.5 772.24 571.5 772.27C579.1 772.28 586.97 771.66 594.53 772.5C597.28 778.45 598.67 785.23 601.11 791.39C603.21 796.7 606.26 801.53 608.5 806.69C597.49 808.93 584.78 807.35 573.5 807.4C549.83 807.48 526.17 807.36 502.5 807.31C457.83 807.22 413.17 807.47 368.5 807.35C349.53 807.3 330.46 808.02 311.5 807.35C282.34 806.33 251.86 789.65 238.66 762.8C228.96 743.05 229.13 723.05 229.31 701.5C229.46 683.84 229.53 666.16 229.39 648.5C228.92 588.84 229.12 529.16 229.29 469.5C229.35 450.5 229.24 431.5 229.38 412.5C229.46 401.44 228.7 390.39 231.04 379.5C237.99 347.13 261.67 322.07 293.47 312.94C302.36 310.39 313.98 308.27 323 310.5ZM337.69 505.46C354.1 504.24 371.04 505.3 387.5 505.36C394.97 505.39 403.28 504.45 407.99 511.55C410.79 515.76 410.45 520.53 410.49 525.37C410.56 533.74 410.51 542.12 410.52 550.5C410.54 559.52 413.08 577.07 405.93 583.45C398.85 589.76 384.45 587.43 375.5 587.39C364.82 587.33 354.13 587.66 343.46 587.47C336.89 587.35 330.47 587.06 326.45 581.06C322.58 575.3 323.88 567.08 323.91 560.5C323.94 549.17 323.92 537.83 323.92 526.5C323.91 516.17 325.07 506.4 337.69 505.46ZM474.65 505.31C480.66 504.14 487.4 504.89 493.5 504.88C505.17 504.86 516.83 504.87 528.5 504.89C535.56 504.9 543.48 503.96 548.34 510.18C551.88 514.7 551.64 520.05 551.67 525.5C551.72 533.5 551.76 541.5 551.78 549.5C551.8 559.17 554.44 576.14 546.88 583.38C541.88 588.17 534.85 587.14 528.5 587.22C514.83 587.38 501.17 587.1 487.5 587.28C480.38 587.38 472.48 588.08 467.2 582.28C460.96 575.43 463.66 557.46 463.6 548.5C463.57 542.5 463.59 536.5 463.58 530.5C463.55 520.91 462.41 507.71 474.65 505.31ZM615.77 505.4C621.7 504.17 628.46 504.9 634.5 504.89C646.83 504.88 659.17 504.97 671.5 504.89C678.8 504.84 686.66 504.49 691.04 511.47C693.53 515.44 693.15 520 693.17 524.5C693.2 532.83 693.16 541.17 693.16 549.5C693.16 559.08 696.05 576.06 688.58 583.08C683.27 588.09 676.29 587.23 669.5 587.22C655.5 587.2 641.5 587.2 627.5 587.2C620.58 587.2 613.41 587.82 608.44 582.06C602.34 575 604.79 557.56 604.83 548.5C604.85 542.5 604.77 536.5 604.79 530.5C604.82 521.06 603.7 507.9 615.77 505.4ZM735.74 604.48C751.73 603.9 767.58 606.42 782.68 611.75C846.36 634.27 880.96 707.09 861.86 771.44C850.98 808.11 825.17 837.89 790.62 854.16C774.13 861.93 755.63 865.53 737.5 865.64C720.07 865.75 702.43 862.11 686.52 854.96C670.91 847.94 655.66 838.16 644.21 825.28C628.59 807.72 617.13 787.66 612.19 764.45C595.3 685.18 654.31 607.42 735.74 604.48ZM336.81 634.47C342.23 633.75 348.04 634.2 353.5 634.22C363.5 634.25 373.5 634.29 383.5 634.25C389.93 634.23 398.22 632.87 403.91 636.57C410.61 640.94 410.55 648.32 410.53 655.5C410.49 668.83 410.48 682.17 410.51 695.5C410.53 701.96 410.75 708.36 405.5 713.01C399.19 718.6 383.66 716.31 375.5 716.34C365.17 716.38 354.83 716.17 344.5 716.35C337.59 716.47 330.64 716.52 326.3 710.23C322.52 704.73 323.92 696.82 323.93 690.5C323.93 681.17 323.98 671.83 323.92 662.5C323.88 657.3 323.24 651.66 324.05 646.52C325.06 640.05 330.45 635.32 336.81 634.47ZM475.68 634.34C480.78 633.47 486.34 634.1 491.5 634.05C503.84 633.94 516.16 634.01 528.5 634.02C536.09 634.02 544.24 633.39 549.01 640.5C552.07 645.04 551.7 650.27 551.67 655.5C551.64 663.17 551.72 670.83 551.74 678.5C551.76 688.54 554.59 705.65 546.51 713.01C541.61 717.47 533.61 716.42 527.5 716.39C513.84 716.33 500.16 716.28 486.5 716.38C479.55 716.43 472.13 717.13 467.11 711.37C461.16 704.55 463.57 687.31 463.58 678.5C463.59 672.17 463.64 665.83 463.63 659.5C463.62 649.31 462.7 636.54 475.68 634.34ZM721.5 754.16C711.82 746.28 703.71 736.43 694.67 727.85C692.29 725.59 690.16 722.88 687.33 721.17C679.34 716.33 668.64 719.81 664.36 727.84C659.46 737.05 664.01 744.45 670.53 750.97C680.69 761.13 691.07 771.11 701.03 781.45C706.12 786.73 711.68 794.19 719.5 794.98C731.22 796.16 739.52 783.85 746.89 776.39C766.77 756.28 786.74 736.22 806.96 716.46C815.36 708.24 825.9 699.24 816.82 686.7C807.21 673.44 794.52 681.72 786.07 690.58C772.9 704.38 758.98 717.5 745.45 730.95C738.45 737.91 729.38 748.85 721.5 754.16Z" fill="#ffffff" fill-rule="evenodd" stroke="#ffffff" stroke-width="0.25" stroke-linejoin="round"/>
</svg>